<?xml version="1.0" standalone="no"?><!DOCTYPE svg PUBLIC "-//W3C//DTD SVG 1.1//EN" "http://www.w3.org/Graphics/SVG/1.1/DTD/svg11.dtd"><svg t="1607327213752" class="icon" viewBox="0 0 1024 1024" version="1.1" xmlns="http://www.w3.org/2000/svg" p-id="3999" xmlns:xlink="http://www.w3.org/1999/xlink" width="200" height="200"><defs><style type="text/css"></style></defs><path d="M511.146667 0c27.306667 0 49.493333 22.186667 49.493333 49.493333v157.013334c0 27.306667-22.186667 49.493333-49.493333 49.493333-27.306667 0-49.493333-22.186667-49.493334-49.493333V49.493333c0-27.306667 22.186667-49.493333 49.493334-49.493333z" fill="#E7E7E7" p-id="4000"></path><path d="M511.146667 768c27.306667 0 49.493333 22.186667 49.493333 49.493333v157.013334c0 27.306667-22.186667 49.493333-49.493333 49.493333-27.306667 0-49.493333-22.186667-49.493334-49.493333v-157.013334c0-27.306667 22.186667-49.493333 49.493334-49.493333z" fill="#BEBDBD" p-id="4001"></path><path d="M808.106667 452.266667h158.72c27.306667 0 49.493333 22.186667 49.493333 49.493333 0 27.306667-22.186667 49.493333-49.493333 49.493333h-158.72c-27.306667 0-49.493333-22.186667-49.493334-49.493333 0-27.306667 22.186667-49.493333 49.493334-49.493333z" fill="#A7A6A6" p-id="4002"></path><path d="M57.173333 452.266667h158.72c27.306667 0 49.493333 22.186667 49.493334 49.493333 0 27.306667-22.186667 49.493333-49.493334 49.493333H57.173333C29.866667 551.253333 7.68 529.066667 7.68 501.76c0-27.306667 22.186667-49.493333 49.493333-49.493333z" fill="#D6D6D6" p-id="4003"></path><path d="M767.146667 68.266667c23.893333 13.653333 32.426667 44.373333 18.773333 66.56l-78.506667 136.533333c-13.653333 23.893333-44.373333 30.72-68.266666 17.066667s-30.72-42.666667-18.773334-66.56l78.506667-136.533334c15.36-22.186667 46.08-30.72 68.266667-17.066666z" fill="#9D9C9C" p-id="4004"></path><path d="M383.146667 733.866667c23.893333 13.653333 32.426667 44.373333 18.773333 66.56l-78.506667 136.533333c-13.653333 23.893333-44.373333 32.426667-66.56 18.773333-23.893333-13.653333-32.426667-44.373333-18.773333-66.56l78.506667-136.533333c11.946667-23.893333 42.666667-32.426667 66.56-18.773333z" fill="#C7C6C6" p-id="4005"></path><path d="M797.866667 609.28l136.533333 78.506667c23.893333 13.653333 32.426667 44.373333 18.773333 66.56-13.653333 23.893333-44.373333 32.426667-66.56 18.773333l-136.533333-78.506667c-23.893333-13.653333-32.426667-42.666667-18.773333-66.56 11.946667-25.6 40.96-34.133333 66.56-18.773333-1.706667-1.706667-1.706667-1.706667 0 0z" fill="#AFAEAE" p-id="4006"></path><path d="M147.626667 233.813333l136.533333 78.506667c23.893333 13.653333 32.426667 42.666667 18.773333 66.56-13.653333 23.893333-42.666667 32.426667-66.56 18.773333h-1.706666l-136.533334-78.506666c-23.893333-13.653333-32.426667-44.373333-18.773333-66.56 13.653333-23.893333 44.373333-32.426667 68.266667-18.773334z" fill="#DDDDDD" p-id="4007"></path><path d="M956.586667 254.293333c13.653333 23.893333 5.12 52.906667-17.066667 66.56l-136.533333 78.506667c-23.893333 13.653333-52.906667 6.826667-68.266667-17.066667-13.653333-23.893333-6.826667-52.906667 17.066667-68.266666h1.706666l136.533334-78.506667c22.186667-13.653333 52.906667-5.12 66.56 18.773333z" fill="#A1A0A0" p-id="4008"></path><path d="M289.28 638.293333c13.653333 23.893333 5.12 52.906667-17.066667 66.56l-136.533333 78.506667c-23.893333 13.653333-52.906667 5.12-66.56-17.066667-13.653333-23.893333-5.12-52.906667 17.066667-66.56l136.533333-78.506666c22.186667-15.36 52.906667-6.826667 66.56 17.066666z" fill="#CFCECE" p-id="4009"></path><path d="M710.826667 735.573333l78.506666 136.533334c13.653333 23.893333 5.12 54.613333-18.773333 66.56-23.893333 13.653333-52.906667 5.12-66.56-18.773334l-78.506667-136.533333c-13.653333-23.893333-5.12-54.613333 18.773334-66.56 23.893333-11.946667 52.906667-5.12 66.56 18.773333z" fill="#B5B5B5" p-id="4010"></path><path d="M335.36 87.04l78.506667 136.533333c13.653333 23.893333 5.12 52.906667-18.773334 66.56-23.893333 13.653333-52.906667 5.12-66.56-18.773333l-78.506666-136.533333c-13.653333-23.893333-5.12-54.613333 18.773333-66.56s52.906667-3.413333 66.56 18.773333z" fill="#E3E3E3" p-id="4011"></path></svg>